<svg width="16" height="16" viewBox="0 0 16 16" fill="none" xmlns="http://www.w3.org/2000/svg">
<g id="Iconly/Bold/Paper Plus">
<g id="Paper Plus">
<path id="Paper Plus_2" fill-rule="evenodd" clip-rule="evenodd" d="M8.36601 9.15333H9.50793C9.77855 9.15333 10.003 8.93333 10.003 8.65999C10.003 8.37999 9.77855 8.15999 9.50793 8.15999H8.36601V7.00666C8.36601 6.73333 8.14819 6.51333 7.87756 6.51333C7.60694 6.51333 7.38251 6.73333 7.38251 7.00666V8.15999H6.2472C5.97657 8.15999 5.75215 8.37999 5.75215 8.65999C5.75215 8.93333 5.97657 9.15333 6.2472 9.15333H7.38251V10.3067C7.38251 10.58 7.60694 10.8 7.87756 10.8C8.14819 10.8 8.36601 10.58 8.36601 10.3067V9.15333ZM12.8917 6.01707C13.0469 6.01528 13.2158 6.01333 13.3693 6.01333C13.5343 6.01333 13.6663 6.14666 13.6663 6.31333V11.6733C13.6663 13.3267 12.3396 14.6667 10.696 14.6667H5.44852C3.73235 14.6667 2.33301 13.26 2.33301 11.5267V4.33999C2.33301 2.68666 3.66634 1.33333 5.30991 1.33333H8.83466C9.00627 1.33333 9.13829 1.47333 9.13829 1.63999V3.78666C9.13829 5.00666 10.135 6.00666 11.3429 6.01333C11.6251 6.01333 11.8738 6.01544 12.0915 6.01728C12.2608 6.01872 12.4114 6.01999 12.5442 6.01999C12.6382 6.01999 12.76 6.01859 12.8917 6.01707ZM13.073 5.04413C12.5304 5.04613 11.8908 5.04413 11.4308 5.03946C10.7007 5.03946 10.0994 4.43213 10.0994 3.69479V1.93746C10.0994 1.65013 10.4446 1.50746 10.642 1.71479C10.9991 2.08986 11.4899 2.6054 11.9785 3.11862C12.466 3.63073 12.9513 4.14052 13.2994 4.50613C13.4921 4.70813 13.3509 5.04346 13.073 5.04413Z" fill="#3455C3"/>
</g>
</g>
</svg>
