<svg width="34" height="34" viewBox="0 0 34 34" fill="none" xmlns="http://www.w3.org/2000/svg">
<path d="M25.1598 27.2L21.2226 25.619C21.9366 24.0584 22.4466 22.4468 22.7628 20.8046L25.1598 27.2ZM12.777 25.619L8.83984 27.2L11.2368 20.8046C11.553 22.4468 12.063 24.0584 12.777 25.619ZM16.9998 6.8C16.9998 6.8 22.0998 8.84 22.0998 17C22.0998 20.162 21.3348 22.865 20.3964 24.9866C20.0598 25.721 19.3356 26.18 18.5298 26.18H15.4698C14.664 26.18 13.9398 25.721 13.6032 24.9866C12.675 22.865 11.8998 20.162 11.8998 17C11.8998 8.84 16.9998 6.8 16.9998 6.8ZM16.9998 17C18.1218 17 19.0398 16.082 19.0398 14.96C19.0398 13.838 18.1218 12.92 16.9998 12.92C15.8778 12.92 14.9598 13.838 14.9598 14.96C14.9598 16.082 15.8778 17 16.9998 17Z" fill="url(#paint0_linear_31_1941)"/>
<defs>
<linearGradient id="paint0_linear_31_1941" x1="11.3978" y1="9.10038" x2="24.0501" y2="22.9523" gradientUnits="userSpaceOnUse">
<stop stop-color="#3455C3"/>
<stop offset="1" stop-color="#4384E6"/>
</linearGradient>
</defs>
</svg>
