<svg width="34" height="34" viewBox="0 0 34 34" fill="none" xmlns="http://www.w3.org/2000/svg">
<path d="M17.0641 20.57C16.1172 20.57 15.2092 20.1939 14.5397 19.5244C13.8702 18.8549 13.4941 17.9468 13.4941 17C13.4941 16.0532 13.8702 15.1451 14.5397 14.4756C15.2092 13.8061 16.1172 13.43 17.0641 13.43C18.0109 13.43 18.9189 13.8061 19.5884 14.4756C20.2579 15.1451 20.6341 16.0532 20.6341 17C20.6341 17.9468 20.2579 18.8549 19.5884 19.5244C18.9189 20.1939 18.0109 20.57 17.0641 20.57ZM24.6427 17.9894C24.6835 17.663 24.7141 17.3366 24.7141 17C24.7141 16.6634 24.6835 16.3268 24.6427 15.98L26.7949 14.3174C26.9887 14.1644 27.0397 13.889 26.9173 13.6646L24.8773 10.1354C24.7549 9.911 24.4795 9.8192 24.2551 9.911L21.7153 10.931C21.1849 10.5332 20.6341 10.1864 19.9915 9.9314L19.6141 7.2284C19.5733 6.9836 19.3591 6.8 19.1041 6.8H15.0241C14.7691 6.8 14.5549 6.9836 14.5141 7.2284L14.1367 9.9314C13.4941 10.1864 12.9433 10.5332 12.4129 10.931L9.87305 9.911C9.64865 9.8192 9.37326 9.911 9.25086 10.1354L7.21085 13.6646C7.07825 13.889 7.13946 14.1644 7.33326 14.3174L9.48546 15.98C9.44466 16.3268 9.41406 16.6634 9.41406 17C9.41406 17.3366 9.44466 17.663 9.48546 17.9894L7.33326 19.6826C7.13946 19.8356 7.07825 20.111 7.21085 20.3354L9.25086 23.8646C9.37326 24.089 9.64865 24.1706 9.87305 24.089L12.4129 23.0588C12.9433 23.4668 13.4941 23.8136 14.1367 24.0686L14.5141 26.7716C14.5549 27.0164 14.7691 27.2 15.0241 27.2H19.1041C19.3591 27.2 19.5733 27.0164 19.6141 26.7716L19.9915 24.0686C20.6341 23.8034 21.1849 23.4668 21.7153 23.0588L24.2551 24.089C24.4795 24.1706 24.7549 24.089 24.8773 23.8646L26.9173 20.3354C27.0397 20.111 26.9887 19.8356 26.7949 19.6826L24.6427 17.9894Z" fill="url(#paint0_linear_31_2117)"/>
<defs>
<linearGradient id="paint0_linear_31_2117" x1="10.2504" y1="9.10038" x2="22.4519" y2="25.3428" gradientUnits="userSpaceOnUse">
<stop stop-color="#3455C3"/>
<stop offset="1" stop-color="#4384E6"/>
</linearGradient>
</defs>
</svg>
