<svg width="34" height="34" viewBox="0 0 34 34" fill="none" xmlns="http://www.w3.org/2000/svg">
<path d="M23.2063 8.74886L23.7567 12.2316L26.9236 13.8466L25.3266 17.0045L26.9326 20.1624L23.7386 21.7774L23.1883 25.2601L19.6785 24.7098L17.1792 27.2L14.671 24.6737L11.1883 25.2511L10.6289 21.7413L7.47998 20.1353L9.086 16.9774L7.489 13.8466L10.6559 12.2135L11.2063 8.75788L14.698 9.33533L17.2063 6.79999L19.7055 9.29924L23.2063 8.74886ZM14.9507 12.4932C14.5917 12.4932 14.2475 12.6358 13.9937 12.8896C13.7399 13.1434 13.5973 13.4877 13.5973 13.8466C13.5973 14.2055 13.7399 14.5498 13.9937 14.8036C14.2475 15.0574 14.5917 15.2 14.9507 15.2C15.3096 15.2 15.6538 15.0574 15.9076 14.8036C16.1615 14.5498 16.304 14.2055 16.304 13.8466C16.304 13.4877 16.1615 13.1434 15.9076 12.8896C15.6538 12.6358 15.3096 12.4932 14.9507 12.4932ZM19.4619 18.809C19.103 18.809 18.7588 18.9516 18.5049 19.2054C18.2511 19.4592 18.1086 19.8035 18.1086 20.1624C18.1086 20.5213 18.2511 20.8656 18.5049 21.1194C18.7588 21.3732 19.103 21.5158 19.4619 21.5158C19.8209 21.5158 20.1651 21.3732 20.4189 21.1194C20.6727 20.8656 20.8153 20.5213 20.8153 20.1624C20.8153 19.8035 20.6727 19.4592 20.4189 19.2054C20.1651 18.9516 19.8209 18.809 19.4619 18.809ZM13.9672 21.5158L21.7176 13.7654L20.4454 12.4932L12.695 20.2436L13.9672 21.5158Z" fill="url(#paint0_linear_31_2121)"/>
<defs>
<linearGradient id="paint0_linear_31_2121" x1="10.529" y1="9.10036" x2="22.796" y2="25.1085" gradientUnits="userSpaceOnUse">
<stop stop-color="#3455C3"/>
<stop offset="1" stop-color="#4384E6"/>
</linearGradient>
</defs>
</svg>
