<svg width="34" height="34" viewBox="0 0 34 34" fill="none" xmlns="http://www.w3.org/2000/svg">
<path d="M15.9999 15.04C15.4719 15.04 15.0399 15.472 15.0399 16C15.0399 16.528 15.4719 16.96 15.9999 16.96C16.5279 16.96 16.9599 16.528 16.9599 16C16.9599 15.472 16.5279 15.04 15.9999 15.04ZM16.4799 6.39999C20.7999 6.39999 20.9055 9.82719 18.6399 10.96C17.6895 11.4304 17.2671 12.4384 17.0847 13.3312C17.5455 13.5232 17.9487 13.8208 18.2559 14.2048C21.8079 12.2848 25.6287 13.0432 25.6287 16.48C25.6287 20.8 22.2015 20.896 21.0687 18.6208C20.5887 17.6704 19.5711 17.248 18.6783 17.0656C18.4863 17.5264 18.1887 17.92 17.8047 18.2464C19.7151 21.7888 18.9567 25.6 15.5199 25.6C11.1999 25.6 11.1135 22.1632 13.3791 21.0304C14.3199 20.56 14.7423 19.5616 14.9343 18.6784C14.4639 18.4864 14.0511 18.1792 13.7439 17.7952C10.2015 19.696 6.3999 18.9472 6.3999 15.52C6.3999 11.2 9.8175 11.0944 10.9503 13.3696C11.4303 14.32 12.4383 14.7328 13.3311 14.9152C13.5135 14.4544 13.8207 14.0512 14.2143 13.744C12.3039 10.2016 13.0623 6.39999 16.4799 6.39999Z" fill="url(#paint0_linear_31_2113)"/>
<defs>
<linearGradient id="paint0_linear_31_2113" x1="9.41381" y1="8.56505" x2="20.8002" y2="24.171" gradientUnits="userSpaceOnUse">
<stop stop-color="#3455C3"/>
<stop offset="1" stop-color="#4384E6"/>
</linearGradient>
</defs>
</svg>
