<?xml version="1.0" standalone="no"?>
<!DOCTYPE svg PUBLIC "-//W3C//DTD SVG 20010904//EN"
 "http://www.w3.org/TR/2001/REC-SVG-20010904/DTD/svg10.dtd">
<svg version="1.0" xmlns="http://www.w3.org/2000/svg"
 width="512.000000pt" height="512.000000pt" viewBox="0 0 512.000000 512.000000"
 preserveAspectRatio="xMidYMid meet">

<g transform="translate(0.000000,512.000000) scale(0.100000,-0.100000)"
fill="#3455c3" stroke="none">
<path d="M1359 4847 c-51 -27 -104 -91 -119 -145 -5 -21 -10 -148 -10 -294 l0
-257 24 -28 24 -28 1282 0 1282 0 24 29 25 28 -3 278 -3 277 -30 49 c-17 26
-50 62 -74 79 l-43 30 -1167 3 -1167 2 -45 -23z m700 -263 c27 -35 26 -66 -2
-100 -20 -23 -32 -27 -72 -27 -40 0 -52 4 -72 27 -28 34 -29 65 -2 100 18 22
28 26 74 26 46 0 56 -4 74 -26z m1150 0 c27 -35 26 -66 -2 -100 -20 -23 -32
-27 -72 -27 -40 0 -52 4 -72 27 -28 34 -29 65 -2 100 18 22 28 26 74 26 46 0
56 -4 74 -26z m-457 -71 c15 -13 18 -32 18 -108 0 -132 3 -130 -210 -130 -213
0 -210 -2 -210 128 0 131 -7 127 208 127 149 0 178 -2 194 -17z m-693 -189
c27 -35 26 -66 -2 -100 -20 -23 -32 -27 -72 -27 -40 0 -52 4 -72 27 -28 34
-29 65 -2 100 18 22 28 26 74 26 46 0 56 -4 74 -26z m1150 0 c27 -35 26 -66
-2 -100 -20 -23 -32 -27 -72 -27 -40 0 -52 4 -72 27 -28 34 -29 65 -2 100 18
22 28 26 74 26 46 0 56 -4 74 -26z"/>
<path d="M772 3904 c-55 -38 -52 75 -52 -1821 0 -1713 0 -1749 20 -1780 10
-17 29 -38 42 -45 34 -19 3522 -19 3556 0 13 7 32 28 42 45 20 31 20 67 20
1780 0 1896 3 1783 -52 1821 -20 14 -204 16 -1788 16 -1584 0 -1768 -2 -1788
-16z m1993 -365 c265 -34 571 -172 742 -332 l33 -31 89 87 c96 94 118 103 165
66 20 -15 26 -29 26 -57 0 -33 -9 -46 -80 -117 -44 -44 -80 -83 -80 -88 0 -5
20 -32 44 -60 55 -66 123 -171 171 -267 246 -490 193 -1092 -133 -1525 -37
-48 -71 -94 -77 -101 -7 -10 11 -35 73 -97 73 -73 82 -87 82 -119 0 -28 -6
-42 -26 -57 -47 -37 -69 -28 -165 65 l-88 87 -42 -37 c-117 -107 -348 -230
-527 -282 -260 -75 -558 -75 -824 1 -193 55 -414 174 -535 288 l-33 31 -89
-87 c-96 -94 -118 -103 -165 -66 -20 15 -26 29 -26 57 0 33 9 46 80 117 44 44
80 83 80 88 0 5 -20 32 -44 60 -138 164 -255 414 -303 654 -27 134 -24 423 5
560 50 232 163 470 298 630 24 28 44 55 44 60 0 5 -36 44 -80 88 -71 71 -80
84 -80 117 0 28 6 42 26 57 47 37 69 28 165 -65 l88 -87 46 41 c69 61 189 138
292 188 263 127 549 172 848 133z"/>
<path d="M2450 3388 c-240 -16 -488 -112 -688 -265 l-74 -56 164 -164 c89 -89
166 -163 171 -163 4 0 35 18 68 41 278 188 660 189 937 0 34 -22 65 -41 69
-41 5 0 82 74 172 164 l163 163 -86 65 c-258 193 -557 279 -896 256z"/>
<path d="M1511 2868 c-298 -399 -343 -933 -115 -1378 48 -93 161 -261 182
-268 4 -1 81 72 171 162 l164 164 -37 50 c-92 126 -156 324 -156 487 0 162 63
358 156 488 l36 50 -163 163 c-90 90 -166 164 -170 164 -3 0 -34 -37 -68 -82z"/>
<path d="M3371 2786 l-164 -164 37 -50 c47 -65 109 -198 132 -287 26 -97 26
-303 0 -400 -23 -89 -85 -222 -132 -287 l-37 -50 164 -164 c90 -90 167 -163
171 -162 20 7 133 172 178 260 197 382 199 818 4 1198 -48 93 -161 261 -182
268 -4 1 -81 -72 -171 -162z"/>
<path d="M2383 2741 c-72 -21 -175 -70 -216 -103 l-28 -23 211 -210 210 -210
210 210 c238 238 230 216 112 279 -106 55 -198 76 -327 75 -74 0 -131 -6 -172
-18z"/>
<path d="M2002 2473 c-32 -46 -79 -145 -98 -209 -25 -82 -25 -276 0 -358 20
-69 74 -179 104 -216 l21 -25 205 205 c114 113 206 209 206 215 0 11 -401 415
-412 415 -4 0 -15 -12 -26 -27z"/>
<path d="M2882 2297 c-111 -111 -202 -207 -202 -212 0 -6 92 -102 206 -215
l205 -205 21 25 c39 46 98 184 113 263 19 99 19 165 0 263 -19 100 -105 284
-133 284 -4 0 -98 -91 -210 -203z"/>
<path d="M2346 1761 l-208 -208 46 -32 c110 -76 230 -111 378 -111 123 0 220
23 318 77 119 64 129 39 -107 275 -114 114 -210 208 -213 208 -3 0 -99 -94
-214 -209z"/>
<path d="M1851 1266 l-163 -163 86 -65 c161 -121 363 -208 561 -243 117 -20
333 -20 450 0 198 35 400 122 561 243 l86 65 -163 163 c-90 90 -167 164 -172
164 -4 0 -35 -19 -69 -41 -277 -189 -659 -188 -937 0 -33 23 -64 41 -68 41 -5
0 -82 -74 -172 -164z"/>
<path d="M185 3622 c-68 -33 -127 -92 -159 -161 l-21 -46 0 -1330 0 -1330 22
-47 c32 -70 94 -131 165 -163 55 -25 75 -28 171 -29 107 -1 109 -1 133 27 l24
28 0 1513 0 1513 -21 27 c-20 25 -23 26 -137 26 -108 0 -122 -2 -177 -28z"/>
<path d="M4621 3624 l-21 -27 0 -1513 0 -1513 23 -26 c17 -20 34 -27 77 -32
75 -7 190 11 245 38 57 28 120 95 148 157 l22 47 0 1330 0 1330 -22 47 c-29
62 -91 128 -150 158 -42 22 -64 25 -174 28 l-126 4 -22 -28z"/>
</g>
</svg>
