<svg width="35" height="34" viewBox="0 0 35 34" fill="none" xmlns="http://www.w3.org/2000/svg">
<path fill-rule="evenodd" clip-rule="evenodd" d="M20.9505 15.9136H24.8716C25.4662 15.9136 25.9333 15.422 25.9333 14.8293C25.9333 14.2221 25.4662 13.745 24.8716 13.745H20.9505C20.356 13.745 19.8888 14.2221 19.8888 14.8293C19.8888 15.422 20.356 15.9136 20.9505 15.9136ZM29.5288 8.39728C30.3923 8.39728 30.9586 8.70088 31.5248 9.36591C32.091 10.0309 32.1901 10.9851 32.0627 11.8511L30.7179 21.335C30.4631 23.1581 28.9343 24.5012 27.1365 24.5012H11.6927C9.81004 24.5012 8.25292 23.028 8.09721 21.1196L6.79489 5.35982L4.65739 4.98393C4.09116 4.88273 3.6948 4.3189 3.79389 3.74061C3.89298 3.14931 4.44505 2.75752 5.02543 2.84571L8.40155 3.36472C8.88284 3.45291 9.23673 3.85627 9.2792 4.34781L9.54816 7.58623C9.59062 8.0503 9.95867 8.39728 10.4117 8.39728H29.5288ZM11.466 26.7861C10.2769 26.7861 9.31431 27.7692 9.31431 28.9836C9.31431 30.1836 10.2769 31.1667 11.466 31.1667C12.6409 31.1667 13.6035 30.1836 13.6035 28.9836C13.6035 27.7692 12.6409 26.7861 11.466 26.7861ZM27.3911 26.7861C26.202 26.7861 25.2394 27.7692 25.2394 28.9836C25.2394 30.1836 26.202 31.1667 27.3911 31.1667C28.566 31.1667 29.5286 30.1836 29.5286 28.9836C29.5286 27.7692 28.566 26.7861 27.3911 26.7861Z" fill="white"/>
</svg>
