<svg width="40" height="40" viewBox="0 0 40 40" fill="none" xmlns="http://www.w3.org/2000/svg">
<path d="M28.68 0H11.34C4.56 0 0 4.76 0 11.84V28.182C0 35.242 4.56 40 11.34 40H28.68C35.46 40 40 35.242 40 28.182V11.84C40 4.76 35.46 0 28.68 0V0Z" fill="#3455C3"/>
<path d="M26.0202 23.5419C26.7002 24.2219 26.7002 25.3219 26.0202 25.9999C25.6802 26.3399 25.2402 26.5219 24.7802 26.5219C24.3402 26.5219 23.9002 26.3619 23.5602 25.9999L20.0002 22.4619L16.4402 25.9999C16.1002 26.3399 15.6602 26.5219 15.2002 26.5219C14.7602 26.5219 14.3002 26.3399 13.9602 25.9999C13.2802 25.3219 13.2802 24.2219 13.9602 23.5219L17.5202 19.9819L13.9602 16.4199C13.2802 15.7419 13.2802 14.6219 13.9602 13.9419C14.6402 13.2599 15.7402 13.2599 16.4402 13.9419L20.0002 17.4999L23.5402 13.9419C24.2402 13.2599 25.3402 13.2599 26.0202 13.9419C26.7002 14.6219 26.7002 15.7419 26.0202 16.4199L22.4602 19.9819L26.0202 23.5419Z" fill="white"/>
</svg>
