<svg width="13" height="10" viewBox="0 0 13 10" fill="none" xmlns="http://www.w3.org/2000/svg">
<path d="M6.39995 3.50008C5.57153 3.50008 4.89995 4.17165 4.89995 5.00008C4.89995 5.82851 5.57153 6.50008 6.39995 6.50008C7.22838 6.50008 7.89995 5.82851 7.89995 5.00008C7.89995 4.17165 7.22838 3.50008 6.39995 3.50008Z" fill="#222B45"/>
<path fill-rule="evenodd" clip-rule="evenodd" d="M6.39995 0.666748C4.65477 0.666748 3.08529 1.36767 1.95436 2.23565C1.38816 2.67021 0.923577 3.15283 0.597613 3.62254C0.27786 4.08329 0.0666199 4.56777 0.0666199 5.00008C0.0666199 5.43239 0.27786 5.91688 0.597613 6.37763C0.923577 6.84733 1.38816 7.32996 1.95436 7.76451C3.08529 8.63249 4.65477 9.33342 6.39995 9.33342C8.14513 9.33342 9.71461 8.63249 10.8455 7.76451C11.4117 7.32996 11.8763 6.84733 12.2023 6.37763C12.522 5.91688 12.7333 5.43239 12.7333 5.00008C12.7333 4.56777 12.522 4.08329 12.2023 3.62254C11.8763 3.15283 11.4117 2.67021 10.8455 2.23565C9.71461 1.36767 8.14513 0.666748 6.39995 0.666748ZM3.89995 5.00008C3.89995 3.61937 5.01924 2.50008 6.39995 2.50008C7.78067 2.50008 8.89995 3.61937 8.89995 5.00008C8.89995 6.38079 7.78067 7.50008 6.39995 7.50008C5.01924 7.50008 3.89995 6.38079 3.89995 5.00008Z" fill="#222B45"/>
</svg>
