<svg width="16" height="16" viewBox="0 0 16 16" xmlns="http://www.w3.org/2000/svg">
<path fill-rule="evenodd" clip-rule="evenodd" d="M15.7688 7.76309C11.0395 1.43936 5.04007 1.38531 0.202684 7.76309C-0.0675613 8.14143 -0.0675613 8.68192 0.202684 9.00622C4.98602 15.384 10.9855 15.4381 15.7688 9.00622C16.0931 8.68192 16.0606 8.1533 15.7688 7.76309ZM11.526 8.41168C11.526 6.46591 9.95853 4.89849 8.01276 4.89849C6.067 4.89849 4.49958 6.46591 4.49958 8.41168C4.49958 10.3034 6.067 11.8708 8.01276 11.8708C9.95853 11.8708 11.526 10.3034 11.526 8.41168ZM9.85043 8.41168C9.85043 7.38475 9.0397 6.57401 8.01276 6.57401C6.98583 6.57401 6.1751 7.38475 6.1751 8.41168C6.1751 9.38456 6.98583 10.2493 8.01276 10.2493C9.0397 10.2493 9.85043 9.38456 9.85043 8.41168Z" fill="#3455C3"/>
</svg>
