<svg width="14" height="20" viewBox="0 0 14 20" fill="none" xmlns="http://www.w3.org/2000/svg">
<path d="M7.17949 0.0650835C6.88985 -0.0619015 6.60459 0.0269335 6.42108 0.213821C6.24283 0.395361 6.15367 0.672434 6.21618 0.951788C6.31484 1.39273 6.36694 1.85148 6.36694 2.3227C6.36694 3.39854 6.09579 4.15205 5.62924 4.7767C5.15497 5.41168 4.46843 5.92863 3.6016 6.51192C3.58798 6.52109 3.57529 6.53158 3.56372 6.54324L3.45873 6.64903C1.5989 7.85058 0.366943 9.94269 0.366943 12.3227C0.366943 16.0506 3.38902 19.0727 7.11694 19.0727C10.8449 19.0727 13.8669 16.0506 13.8669 12.3227C13.8669 11.2281 13.6062 10.1938 13.1433 9.27894C13.1056 9.20451 13.0333 9.15378 12.9505 9.14366C12.8678 9.13354 12.7854 9.16539 12.7309 9.22855C12.6604 9.3103 12.5913 9.39099 12.5233 9.47048C11.645 10.4967 10.9362 11.3248 9.4831 11.6947C9.42131 11.7105 9.38292 11.6988 9.35568 11.6817C9.32362 11.6617 9.28854 11.6217 9.26451 11.5579C9.21442 11.4247 9.23592 11.255 9.33855 11.1437C10.1157 10.3011 10.6678 9.15729 10.8651 7.53017C11.2347 4.48227 9.84943 1.23568 7.17949 0.0650835Z" fill="white"/>
</svg>
