<svg width="25" height="21" viewBox="0 0 25 21" fill="none" xmlns="http://www.w3.org/2000/svg">
<path d="M22.4406 5.05714C22.4558 5.27754 22.4558 5.49793 22.4558 5.72036C22.4558 12.4977 17.2964 20.3141 7.86208 20.3141V20.31C5.07516 20.3141 2.34613 19.5158 0 18.0106C0.405241 18.0594 0.812513 18.0838 1.2208 18.0848C3.53037 18.0868 5.77392 17.3119 7.5909 15.8849C5.3961 15.8432 3.47146 14.4122 2.79911 12.323C3.56795 12.4713 4.36015 12.4409 5.11477 12.2347C2.72192 11.7512 1.00041 9.64886 1.00041 7.20725C1.00041 7.18491 1.00041 7.16358 1.00041 7.14225C1.71339 7.53937 2.51168 7.75976 3.32826 7.78414C1.07455 6.27794 0.37985 3.27977 1.74081 0.935672C4.34491 4.14002 8.18708 6.08802 12.3116 6.29419C11.8982 4.51276 12.4629 2.64601 13.7955 1.39373C15.8613 -0.54818 19.1103 -0.448647 21.0522 1.61615C22.2009 1.38966 23.3018 0.968172 24.3094 0.370976C23.9265 1.55826 23.1251 2.56679 22.0546 3.20766C23.0713 3.08782 24.0646 2.81562 25 2.40023C24.3114 3.43212 23.444 4.33096 22.4406 5.05714Z" fill="#222B45"/>
</svg>
