<svg width="25" height="25" viewBox="0 0 25 25" fill="none" xmlns="http://www.w3.org/2000/svg">
<path d="M21.3019 21.3017H17.5976V15.5005C17.5976 14.1172 17.5729 12.3364 15.6709 12.3364C13.7416 12.3364 13.4464 13.8436 13.4464 15.3998V21.3013H9.74204V9.37177H13.2982V11.0021H13.348C13.7039 10.3936 14.2181 9.89298 14.836 9.55364C15.4539 9.21429 16.1523 9.04888 16.8567 9.07503C20.6112 9.07503 21.3035 11.5446 21.3035 14.7573L21.3019 21.3017ZM5.56231 7.74108C5.13714 7.74116 4.7215 7.61516 4.36794 7.37901C4.01439 7.14287 3.7388 6.80718 3.57602 6.41441C3.41325 6.02163 3.3706 5.58941 3.45347 5.1724C3.53634 4.75539 3.74101 4.37232 4.04159 4.07163C4.34218 3.77093 4.72518 3.56613 5.14216 3.48311C5.55914 3.40009 5.99138 3.44258 6.38421 3.60521C6.77704 3.76785 7.11282 4.04332 7.3491 4.39679C7.58537 4.75026 7.71152 5.16585 7.7116 5.59102C7.71165 5.87332 7.65609 6.15286 7.54811 6.41369C7.44013 6.67452 7.28182 6.91153 7.08224 7.11118C6.88266 7.31084 6.64571 7.46922 6.38492 7.5773C6.12413 7.68538 5.8446 7.74103 5.56231 7.74108ZM7.41448 21.3017H3.70627V9.37177H7.41448V21.3017ZM23.1487 0.00170267H1.84484C1.3613 -0.00375405 0.895381 0.182982 0.549455 0.520877C0.203529 0.858771 0.0059013 1.32018 0 1.80371V23.1959C0.00569933 23.6797 0.2032 24.1414 0.549114 24.4797C0.895028 24.8179 1.36106 25.005 1.84484 24.9999H23.1487C23.6334 25.0059 24.1008 24.8194 24.448 24.4811C24.7953 24.1429 24.9941 23.6806 25.0009 23.1959V1.80217C24.9939 1.31768 24.795 0.855745 24.4477 0.517859C24.1004 0.179972 23.6332 -0.00623066 23.1487 0.000159189" fill="#222B45"/>
</svg>
