<svg width="34" height="20" viewBox="0 0 34 20" fill="none" xmlns="http://www.w3.org/2000/svg">
<path fill-rule="evenodd" clip-rule="evenodd" d="M32.9036 1.35432C33.1377 0.573579 32.9036 0 31.7895 0H28.1053C27.1684 0 26.7366 0.495579 26.5024 1.04189C26.5024 1.04189 24.6288 5.60863 21.9747 8.57505C21.1161 9.43369 20.7257 9.70695 20.2574 9.70695C20.0232 9.70695 19.6719 9.43368 19.6719 8.65316V1.35421C19.6719 0.417579 19.4123 0 18.6316 0H12.8421C12.2567 0 11.9046 0.434737 11.9046 0.846842C11.9046 1.73484 13.2317 1.93968 13.3684 4.43768V9.86316C13.3684 11.0526 13.1537 11.2683 12.6853 11.2683C11.4363 11.2683 8.39811 6.68116 6.59632 1.43232C6.24316 0.412105 5.88895 0 4.94737 0H1.26316C0.210526 0 0 0.495579 0 1.04189C0 2.01768 1.24905 6.85768 5.81568 13.2588C8.86011 17.6305 13.1495 20 17.0526 20C19.3945 20 19.6842 19.4737 19.6842 18.5672V15.2632C19.6842 14.2105 19.9061 14.0004 20.6477 14.0004C21.194 14.0004 22.1308 14.2737 24.3166 16.3814C26.8147 18.8794 27.2265 20 28.6316 20H32.3158C33.3684 20 33.8947 19.4737 33.5912 18.4351C33.2588 17.3999 32.0662 15.8979 30.4837 14.1176C29.6249 13.1027 28.3369 12.0099 27.9465 11.4634C27.4002 10.7608 27.5563 10.4486 27.9465 9.82411C27.9465 9.82411 32.4353 3.50095 32.9036 1.35432Z" fill="#222B45"/>
</svg>
