<svg width="11" height="14" viewBox="0 0 11 14" fill="none" xmlns="http://www.w3.org/2000/svg">
<path fill-rule="evenodd" clip-rule="evenodd" d="M7.29997 0.666667C7.29997 0.574619 7.22535 0.5 7.1333 0.5H2.46663C1.45411 0.5 0.633301 1.32081 0.633301 2.33333V11.6667C0.633301 12.6792 1.45411 13.5 2.46663 13.5H9.1333C10.1458 13.5 10.9666 12.6792 10.9666 11.6667V5.09804C10.9666 5.00599 10.892 4.93137 10.8 4.93137H7.79997C7.52382 4.93137 7.29997 4.70752 7.29997 4.43137V0.666667ZM7.79997 7.16667C8.07611 7.16667 8.29997 7.39052 8.29997 7.66667C8.29997 7.94281 8.07611 8.16667 7.79997 8.16667H3.79997C3.52382 8.16667 3.29997 7.94281 3.29997 7.66667C3.29997 7.39052 3.52382 7.16667 3.79997 7.16667H7.79997ZM7.79997 9.83333C8.07611 9.83333 8.29997 10.0572 8.29997 10.3333C8.29997 10.6095 8.07611 10.8333 7.79997 10.8333H3.79997C3.52382 10.8333 3.29997 10.6095 3.29997 10.3333C3.29997 10.0572 3.52382 9.83333 3.79997 9.83333H7.79997Z" fill="#222B45"/>
<path d="M8.29997 0.882757C8.29997 0.75976 8.42839 0.681664 8.5241 0.758924C8.60471 0.824 8.67716 0.900238 8.73898 0.986366L10.7478 3.78497C10.7935 3.84868 10.744 3.93137 10.6655 3.93137H8.46663C8.37459 3.93137 8.29997 3.85675 8.29997 3.76471V0.882757Z" fill="#222B45"/>
</svg>
