<svg width="16" height="16" viewBox="0 0 16 16" fill="none" xmlns="http://www.w3.org/2000/svg">
<g id="Iconly/Bold/Location">
<g id="Location">
<path id="Location_2" fill-rule="evenodd" clip-rule="evenodd" d="M2.33301 6.87851C2.33301 3.81193 4.8956 1.33334 7.9953 1.33334C11.1038 1.33334 13.6663 3.81193 13.6663 6.87851C13.6663 8.4238 13.1043 9.85842 12.1793 11.0744C11.1589 12.4157 9.90111 13.5843 8.48537 14.5016C8.16135 14.7136 7.86892 14.7296 7.51331 14.5016C6.0895 13.5843 4.83173 12.4157 3.82001 11.0744C2.89433 9.85842 2.33301 8.4238 2.33301 6.87851ZM6.12916 7.05117C6.12916 8.07847 6.96745 8.88645 7.99531 8.88645C9.02384 8.88645 9.87019 8.07847 9.87019 7.05117C9.87019 6.03187 9.02384 5.18456 7.99531 5.18456C6.96745 5.18456 6.12916 6.03187 6.12916 7.05117Z" fill="#3455C3"/>
</g>
</g>
</svg>
