<svg width="36" height="34" viewBox="0 0 36 34" fill="none" xmlns="http://www.w3.org/2000/svg">
<path d="M13.8613 29.4289V25.0971C13.8613 23.9913 14.782 23.0949 15.9177 23.0949H20.0693C20.6146 23.0949 21.1377 23.3059 21.5233 23.6814C21.909 24.0568 22.1257 24.5661 22.1257 25.0971V29.4289C22.1222 29.8886 22.3074 30.3307 22.64 30.6569C22.9727 30.9832 23.4253 31.1667 23.8975 31.1666H26.7299C28.0527 31.17 29.3226 30.6607 30.2592 29.7511C31.1958 28.8416 31.7222 27.6066 31.7222 26.3186V13.978C31.7221 12.9376 31.2485 11.9508 30.4288 11.2833L20.7935 3.79081C19.1174 2.47712 16.716 2.51954 15.0899 3.89155L5.67451 11.2833C4.81611 11.9311 4.30306 12.9209 4.27771 13.978V26.306C4.27771 28.9905 6.51282 31.1666 9.26996 31.1666H12.0377C13.0184 31.1667 13.8154 30.3963 13.8225 29.4415L13.8613 29.4289Z" fill="url(#paint0_linear_56_5000)"/>
<defs>
<linearGradient id="paint0_linear_56_5000" x1="8.57933" y1="6.0283" x2="25.5456" y2="28.5186" gradientUnits="userSpaceOnUse">
<stop stop-color="#3455C3"/>
<stop offset="1" stop-color="#4384E6"/>
</linearGradient>
</defs>
</svg>
