<svg width="36" height="34" viewBox="0 0 36 34" fill="none" xmlns="http://www.w3.org/2000/svg">
<path fill-rule="evenodd" clip-rule="evenodd" d="M24.0064 11.6632C24.0064 14.9919 21.3007 17.661 17.9263 17.661C14.552 17.661 11.8463 14.9919 11.8463 11.6632C11.8463 8.33322 14.552 5.66667 17.9263 5.66667C21.3007 5.66667 24.0064 8.33322 24.0064 11.6632ZM17.9263 28.3333C12.9702 28.3333 8.73832 27.5627 8.73832 24.4802C8.73832 21.3965 12.943 20.5978 17.9263 20.5978C22.8825 20.5978 27.1144 21.3684 27.1144 24.4522C27.1144 27.5347 22.9097 28.3333 17.9263 28.3333ZM26.6047 11.7714C26.6047 13.4683 26.0886 15.0491 25.1833 16.3632C25.0901 16.4985 25.1729 16.6809 25.3372 16.709C25.5635 16.7473 25.7976 16.7689 26.0356 16.7753C28.4089 16.8366 30.5391 15.3298 31.1275 13.0613C31.9993 9.69175 29.4397 6.66669 26.1804 6.66669C25.8261 6.66669 25.4872 6.70369 25.1574 6.77004C25.1121 6.78024 25.0643 6.80066 25.0384 6.84021C25.0074 6.88869 25.0306 6.95376 25.0617 6.99586C26.0408 8.34955 26.6047 10.0005 26.6047 11.7714ZM30.5352 19.1428C32.1299 19.4503 33.1788 20.078 33.6134 20.9903C33.9807 21.7392 33.9807 22.608 33.6134 23.3557C32.9486 24.7706 30.8055 25.2248 29.9726 25.3422C29.8006 25.3677 29.6622 25.221 29.6803 25.0513C30.1058 21.1306 26.7211 19.2717 25.8455 18.8443C25.808 18.8251 25.8002 18.7958 25.8041 18.7779C25.8067 18.7652 25.8222 18.7447 25.8506 18.7409C27.7454 18.7065 29.7824 18.9616 30.5352 19.1428ZM9.96468 16.7752C10.2027 16.7688 10.4355 16.7484 10.6631 16.7089C10.8274 16.6808 10.9101 16.4983 10.817 16.3631C9.91166 15.049 9.39561 13.4682 9.39561 11.7713C9.39561 10.0004 9.95951 8.34942 10.9386 6.99573C10.9696 6.95363 10.9916 6.88856 10.9619 6.84008C10.936 6.8018 10.8869 6.78011 10.8429 6.76991C10.5118 6.70356 10.1729 6.66656 9.81854 6.66656C6.55927 6.66656 3.99971 9.69163 4.87273 13.0612C5.46121 15.3296 7.59137 16.8364 9.96468 16.7752ZM10.1955 18.7771C10.1994 18.7963 10.1917 18.8244 10.1555 18.8448C9.27856 19.2722 5.89384 21.1311 6.31935 25.0506C6.33746 25.2215 6.20036 25.367 6.02835 25.3427C5.19542 25.2253 3.05233 24.7711 2.38754 23.3562C2.01893 22.6073 2.01893 21.7397 2.38754 20.9908C2.82211 20.0785 3.86973 19.4508 5.46444 19.142C6.21847 18.9621 8.25422 18.707 10.1503 18.7414C10.1787 18.7453 10.193 18.7657 10.1955 18.7771Z" fill="url(#paint0_linear_56_4987)"/>
<defs>
<linearGradient id="paint0_linear_56_4987" x1="7.09191" y1="8.22265" x2="18.663" y2="30.4232" gradientUnits="userSpaceOnUse">
<stop stop-color="#3455C3"/>
<stop offset="1" stop-color="#4384E6"/>
</linearGradient>
</defs>
</svg>
