<svg width="36" height="34" viewBox="0 0 36 34" fill="none" xmlns="http://www.w3.org/2000/svg">
<path fill-rule="evenodd" clip-rule="evenodd" d="M17.6072 31.0443C17.7672 31.1263 17.946 31.168 18.1249 31.1666C18.3037 31.1652 18.4812 31.1221 18.6426 31.0388L23.7962 28.3368C25.2576 27.5728 26.4021 26.7184 27.2949 25.7238C29.2362 23.5566 30.2963 20.7907 30.2774 17.9387L30.2164 8.53114C30.2105 7.44757 29.4849 6.48069 28.4117 6.12923L18.8243 2.97438C18.247 2.78267 17.6145 2.78684 17.0473 2.9841L7.4963 6.25148C6.42893 6.61683 5.71639 7.59065 5.7222 8.67561L5.78328 18.0763C5.80218 20.9324 6.89863 23.6858 8.87195 25.8307C9.77354 26.8115 10.9282 27.6533 12.4056 28.4049L17.6072 31.0443ZM16.2429 19.9876C16.4581 20.1905 16.7373 20.2905 17.0165 20.2877C17.2957 20.2863 17.5735 20.1835 17.7858 19.9779L23.4178 14.5323C23.841 14.1225 23.8366 13.464 23.4091 13.0598C22.9801 12.6555 22.2894 12.6583 21.8662 13.0681L17.0005 17.7719L15.0083 15.8937C14.5793 15.4894 13.89 15.4936 13.4654 15.9034C13.0423 16.3132 13.0466 16.9717 13.4756 17.376L16.2429 19.9876Z" fill="url(#paint0_linear_56_5009)"/>
<defs>
<linearGradient id="paint0_linear_56_5009" x1="9.57099" y1="6.0283" x2="26.9619" y2="26.6548" gradientUnits="userSpaceOnUse">
<stop stop-color="#3455C3"/>
<stop offset="1" stop-color="#4384E6"/>
</linearGradient>
</defs>
</svg>
