<svg width="35" height="34" viewBox="0 0 35 34" fill="none" xmlns="http://www.w3.org/2000/svg">
<path fill-rule="evenodd" clip-rule="evenodd" d="M17.0704 31.1668C9.25035 31.1668 2.90369 24.8343 2.90369 17.0001C2.90369 9.18015 9.25035 2.83348 17.0704 2.83348C24.9045 2.83348 31.237 9.18015 31.237 17.0001C31.237 24.8343 24.9045 31.1668 17.0704 31.1668ZM21.5895 22.256C21.7595 22.3551 21.9437 22.4118 22.142 22.4118C22.4962 22.4118 22.8504 22.2276 23.0487 21.8876C23.3462 21.3918 23.1904 20.7401 22.6804 20.4285L17.637 17.4251V10.8801C17.637 10.2851 17.1554 9.81765 16.5745 9.81765C15.9937 9.81765 15.512 10.2851 15.512 10.8801V18.0343C15.512 18.4026 15.7104 18.7426 16.0362 18.941L21.5895 22.256Z" fill="white"/>
</svg>
