<svg width="36" height="34" viewBox="0 0 36 34" fill="none" xmlns="http://www.w3.org/2000/svg">
<path fill-rule="evenodd" clip-rule="evenodd" d="M30.1319 12.9568L31.1723 13.9768C31.9959 14.7702 32.4438 15.8468 32.4438 16.9802C32.4583 18.1135 32.0104 19.1916 31.2012 19.9977C31.1915 20.0081 31.1819 20.0172 31.1723 20.0263C31.1675 20.0309 31.1626 20.0354 31.1578 20.0402L30.1319 21.046C29.7273 21.4427 29.4961 21.981 29.4961 22.5491V24.0068C29.4961 26.3585 27.5454 28.2724 25.1468 28.2724H23.6584C23.0805 28.2724 22.5314 28.4977 22.1268 28.8943L21.0864 29.9143C20.2339 30.7516 19.1212 31.161 18.0086 31.161C16.896 31.161 15.7834 30.7516 14.9308 29.9299L13.876 28.8943C13.4714 28.4977 12.9223 28.2724 12.3443 28.2724H10.856C8.45738 28.2724 6.50667 26.3585 6.50667 24.0068V22.5491C6.50667 21.981 6.27547 21.4427 5.87088 21.0318L4.83051 20.026C3.13989 18.3699 3.12544 15.6627 4.81606 13.9924L5.87088 12.9568C6.27547 12.5602 6.50667 12.0218 6.50667 11.441V9.996C6.50667 7.64433 8.45738 5.73325 10.856 5.73325H12.3443C12.9223 5.73325 13.4714 5.50517 13.876 5.1085L14.9164 4.0885C16.607 2.41825 19.3669 2.41825 21.0719 4.07575L22.1268 5.1085C22.5314 5.50517 23.0805 5.73325 23.6584 5.73325H25.1468C27.5454 5.73325 29.4961 7.64433 29.4961 9.996V11.4566C29.4961 12.0218 29.7273 12.5602 30.1319 12.9568ZM14.2806 21.8818C14.6274 21.8818 14.9453 21.7543 15.1765 21.5135L22.6036 14.2332C23.0949 13.7516 23.0949 12.9568 22.6036 12.4752C22.1123 11.9949 21.3176 11.9949 20.8263 12.4752L13.3992 19.7568C12.9079 20.2385 12.9079 21.0318 13.3992 21.5135C13.6304 21.7543 13.9483 21.8818 14.2806 21.8818ZM20.4506 20.6352C20.4506 21.3293 21.0141 21.8818 21.7222 21.8818C22.4158 21.8818 22.9793 21.3293 22.9793 20.6352C22.9793 19.9566 22.4158 19.4027 21.7222 19.4027C21.0141 19.4027 20.4506 19.9566 20.4506 20.6352ZM14.295 12.121C14.9886 12.121 15.5522 12.6735 15.5522 13.3535C15.5522 14.0491 14.9886 14.6002 14.295 14.6002C13.6015 14.6002 13.0235 14.0491 13.0235 13.3535C13.0235 12.6735 13.6015 12.121 14.295 12.121Z" fill="url(#paint0_linear_56_4993)"/>
<defs>
<linearGradient id="paint0_linear_56_4993" x1="8.08332" y1="6.02844" x2="24.787" y2="29.3415" gradientUnits="userSpaceOnUse">
<stop stop-color="#3455C3"/>
<stop offset="1" stop-color="#4384E6"/>
</linearGradient>
</defs>
</svg>
