<svg width="35" height="34" viewBox="0 0 35 34" fill="none" xmlns="http://www.w3.org/2000/svg">
<path fill-rule="evenodd" clip-rule="evenodd" d="M25.9304 11.8742H31.9245C31.9245 7.06151 29.0408 4.25 24.1549 4.25H11.3608C6.47489 4.25 3.59119 7.06151 3.59119 11.8128V22.1872C3.59119 26.9385 6.47489 29.75 11.3608 29.75H24.1549C29.0408 29.75 31.9245 26.9385 31.9245 22.1872V21.7452H25.9304C23.1486 21.7452 20.8934 19.5465 20.8934 16.8343C20.8934 14.122 23.1486 11.9233 25.9304 11.9233V11.8742ZM25.9304 13.9859H30.8667C31.4509 13.9859 31.9245 14.4476 31.9245 15.0172V18.6022C31.9177 19.169 31.4481 19.6269 30.8667 19.6335H26.0438C24.6355 19.652 23.404 18.7119 23.0845 17.3745C22.9245 16.5442 23.1491 15.6876 23.698 15.034C24.247 14.3804 25.0641 13.9968 25.9304 13.9859ZM26.1445 17.7551H26.6104C27.2085 17.7551 27.6934 17.2823 27.6934 16.6992C27.6934 16.1161 27.2085 15.6434 26.6104 15.6434H26.1445C25.8585 15.6401 25.583 15.7486 25.3795 15.9446C25.176 16.1407 25.0615 16.408 25.0616 16.6869C25.0615 17.2721 25.5444 17.7483 26.1445 17.7551ZM10.303 11.8742H18.2993C18.8974 11.8742 19.3823 11.4015 19.3823 10.8184C19.3823 10.2352 18.8974 9.76252 18.2993 9.76252H10.303C9.70982 9.76248 9.22697 10.2278 9.22008 10.8061C9.22004 11.3912 9.7029 11.8675 10.303 11.8742Z" fill="white"/>
</svg>
