<svg width="10" height="14" viewBox="0 0 10 14" fill="none" xmlns="http://www.w3.org/2000/svg">
<path d="M5.0417 0.37656C4.84861 0.291903 4.65843 0.351126 4.53609 0.475718C4.41726 0.596745 4.35782 0.78146 4.39949 0.967696C4.46526 1.26166 4.5 1.56749 4.5 1.88164C4.5 2.59887 4.31923 3.1012 4.0082 3.51763C3.69202 3.94096 3.23432 4.28559 2.65644 4.67445C2.64736 4.68056 2.6389 4.68756 2.63118 4.69533L2.56119 4.76586C1.3213 5.56689 0.5 6.96163 0.5 8.5483C0.5 11.0336 2.51472 13.0483 5 13.0483C7.48528 13.0483 9.5 11.0336 9.5 8.5483C9.5 7.8186 9.32619 7.12901 9.01757 6.51913C8.99246 6.46951 8.94426 6.43569 8.88907 6.42894C8.83388 6.4222 8.77895 6.44343 8.74264 6.48554C8.69564 6.54004 8.6496 6.59383 8.60425 6.64682C8.01872 7.33095 7.5462 7.88304 6.57744 8.12965C6.53624 8.14014 6.51065 8.13234 6.49249 8.121C6.47112 8.10765 6.44773 8.08099 6.43171 8.03841C6.39832 7.94965 6.41265 7.83647 6.48107 7.76229C6.99919 7.20056 7.36726 6.43803 7.49879 5.35329C7.74516 3.32135 6.82166 1.15696 5.0417 0.37656Z" fill="#222B45"/>
</svg>
