<svg width="12" height="12" viewBox="0 0 12 12" fill="none" xmlns="http://www.w3.org/2000/svg">
<path d="M6 0.5C4.61929 0.5 3.5 1.61929 3.5 3C3.5 4.38071 4.61929 5.5 6 5.5C7.38071 5.5 8.5 4.38071 8.5 3C8.5 1.61929 7.38071 0.5 6 0.5Z" fill="#222B45"/>
<path d="M3.33334 6.83333C1.95262 6.83333 0.833336 7.95262 0.833336 9.33333V10.1255C0.833336 10.6277 1.19726 11.0558 1.69285 11.1367C4.5454 11.6025 7.4546 11.6025 10.3072 11.1367C10.8027 11.0558 11.1667 10.6277 11.1667 10.1255V9.33333C11.1667 7.95262 10.0474 6.83333 8.66667 6.83333H8.43942C8.31643 6.83333 8.19421 6.85278 8.07729 6.89096L7.50028 7.07937C6.52542 7.39769 5.47458 7.39769 4.49973 7.07937L3.92272 6.89096C3.8058 6.85278 3.68358 6.83333 3.56058 6.83333H3.33334Z" fill="#222B45"/>
</svg>
