<svg width="35" height="33" viewBox="0 0 35 33" fill="none" xmlns="http://www.w3.org/2000/svg">
<path fill-rule="evenodd" clip-rule="evenodd" d="M13.34 22.5362H20.9704C21.5455 22.5362 22.0224 22.0687 22.0224 21.505C22.0224 20.9412 21.5455 20.4875 20.9704 20.4875H13.34C12.765 20.4875 12.2881 20.9412 12.2881 21.505C12.2881 22.0687 12.765 22.5362 13.34 22.5362ZM18.081 13.6125H13.34C12.765 13.6125 12.2881 14.08 12.2881 14.6438C12.2881 15.2075 12.765 15.6613 13.34 15.6613H18.081C18.656 15.6613 19.1329 15.2075 19.1329 14.6438C19.1329 14.08 18.656 13.6125 18.081 13.6125ZM28.0908 12.4102C28.4205 12.4065 28.7795 12.4025 29.1057 12.4025C29.4564 12.4025 29.7369 12.6775 29.7369 13.0212V24.0763C29.7369 27.4862 26.9176 30.25 23.439 30.25H12.274C8.62716 30.25 5.65356 27.3487 5.65356 23.7738V8.95125C5.65356 5.54125 8.4869 2.75 11.9795 2.75H19.4696C19.8343 2.75 20.1148 3.03875 20.1148 3.3825V7.81C20.1148 10.3263 22.2328 12.3888 24.7996 12.4025C25.3992 12.4025 25.9277 12.4068 26.3903 12.4107C26.7502 12.4136 27.0701 12.4163 27.3524 12.4163C27.5521 12.4163 27.8109 12.4134 28.0908 12.4102ZM28.4776 10.4032C27.3246 10.4074 25.9655 10.4032 24.9878 10.3936C23.4365 10.3936 22.1587 9.141 22.1587 7.62025V3.99575C22.1587 3.40313 22.8923 3.10888 23.3117 3.5365C24.0711 4.31058 25.1149 5.37475 26.1537 6.43393C27.189 7.48947 28.2194 8.54005 28.9587 9.29362C29.3683 9.71025 29.0681 10.4019 28.4776 10.4032Z" fill="white"/>
</svg>
