<svg width="12" height="13" viewBox="0 0 12 13" fill="none" xmlns="http://www.w3.org/2000/svg">
<path d="M11.4241 10.2711C11.7196 7.43144 11.7196 4.56878 11.4241 1.72911C11.3317 0.840906 10.3076 0.390985 9.59093 0.923729L6.85517 2.95733C5.99279 3.59838 4.94684 3.94455 3.8723 3.94455H1.3195C0.951309 3.94455 0.652832 4.24302 0.652832 4.61121V7.38899C0.652832 7.75718 0.951308 8.05566 1.3195 8.05566L3.87229 8.05566C4.94684 8.05566 5.99279 8.40183 6.85517 9.04288L9.59093 11.0765C10.3076 11.6092 11.3317 11.1593 11.4241 10.2711Z" fill="#222B45"/>
<path d="M4.26178 9.53476C4.30007 9.38513 4.26706 9.22619 4.17235 9.10419C4.07764 8.98218 3.93185 8.9108 3.7774 8.9108L2.44406 8.91079C2.25467 8.91078 2.08154 9.01779 1.99684 9.18718L1.33018 10.5205C1.21633 10.7482 1.29174 11.0251 1.50532 11.1636L2.92797 12.0863C3.06304 12.1739 3.23203 12.1911 3.38199 12.1325C3.53194 12.0739 3.64451 11.9467 3.68443 11.7907L4.26178 9.53476Z" fill="#222B45"/>
</svg>
