<svg width="13" height="12" viewBox="0 0 13 12" fill="none" xmlns="http://www.w3.org/2000/svg">
<path d="M3.47762 0.512384C5.53598 0.282331 7.66358 0.282331 9.72195 0.512384C10.4948 0.598756 11.1732 1.01667 11.6023 1.6236L6.26646 6.95944L4.62001 5.313C4.42475 5.11773 4.10817 5.11773 3.91291 5.313C3.71764 5.50826 3.71764 5.82484 3.91291 6.0201L5.91291 8.0201C6.10817 8.21537 6.42475 8.21537 6.62001 8.0201L12.0303 2.60981C12.0453 2.68286 12.0572 2.75703 12.066 2.8322C12.3122 4.93682 12.3122 7.06295 12.066 9.16756C11.9228 10.3922 10.9395 11.3513 9.72195 11.4874C7.66358 11.7174 5.53598 11.7174 3.47761 11.4874C2.26003 11.3513 1.27676 10.3922 1.13353 9.16756C0.887375 7.06295 0.887375 4.93682 1.13353 2.8322C1.27676 1.60756 2.26003 0.648467 3.47762 0.512384Z" fill="#222B45"/>
</svg>
