<svg width="24" height="20" viewBox="0 0 24 20" fill="none" xmlns="http://www.w3.org/2000/svg">
<g id="Iconly/Bold/Search">
<g id="Search">
<path id="Search_2" fill-rule="evenodd" clip-rule="evenodd" d="M2 8.66993C2 3.88166 5.84034 0 10.5776 0C12.8526 0 15.0343 0.913436 16.6429 2.53936C18.2516 4.16529 19.1553 6.37052 19.1553 8.66993C19.1553 13.4582 15.3149 17.3399 10.5776 17.3399C5.84034 17.3399 2 13.4582 2 8.66993ZM19.0143 15.6543L21.569 17.7164H21.6133C22.1302 18.2388 22.1302 19.0858 21.6133 19.6082C21.0965 20.1306 20.2585 20.1306 19.7417 19.6082L17.6217 17.1785C17.4212 16.9766 17.3086 16.7024 17.3086 16.4164C17.3086 16.1304 17.4212 15.8562 17.6217 15.6543C18.0082 15.2704 18.6278 15.2704 19.0143 15.6543Z" fill="#8F9BB3"/>
</g>
</g>
</svg>
