<svg width="16" height="16" viewBox="0 0 16 16" fill="none" xmlns="http://www.w3.org/2000/svg">
<g id="Iconly/Bold/Location">
<path id="Vector" d="M12.2878 7.27926C12.0491 6.74206 11.7022 6.25989 11.2686 5.86292L10.9108 5.53465C10.8987 5.52381 10.884 5.51612 10.8682 5.51225C10.8524 5.50838 10.8359 5.50845 10.8201 5.51246C10.8043 5.51646 10.7898 5.52428 10.7777 5.53523C10.7657 5.54617 10.7565 5.55991 10.751 5.57523L10.5912 6.03382C10.4916 6.32151 10.3084 6.61535 10.049 6.90428C10.0318 6.92272 10.0121 6.92764 9.99856 6.92887C9.98503 6.9301 9.96413 6.92764 9.94569 6.91042C9.92847 6.89567 9.91987 6.87354 9.9211 6.85141C9.96659 6.11127 9.74529 5.27647 9.26088 4.36789C8.86007 3.613 8.30312 3.02409 7.60725 2.61345L7.09948 2.31469C7.03309 2.27534 6.94825 2.32698 6.95194 2.40444L6.97899 2.99458C6.99743 3.39785 6.95071 3.75439 6.84006 4.05069C6.70482 4.41338 6.51057 4.75026 6.26221 5.0527C6.08938 5.2629 5.89349 5.45302 5.67822 5.61949C5.15976 6.01804 4.73819 6.52872 4.44507 7.11329C4.15267 7.70295 4.00036 8.35217 4 9.01035C4 9.59066 4.11434 10.1525 4.34056 10.6824C4.559 11.1926 4.87422 11.6556 5.26881 12.0459C5.66715 12.4393 6.12943 12.7491 6.64458 12.9643C7.17816 13.1881 7.74372 13.3012 8.32771 13.3012C8.91171 13.3012 9.47726 13.1881 10.0108 12.9655C10.5247 12.7516 10.992 12.4397 11.3866 12.0471C11.785 11.6537 12.0972 11.1939 12.3149 10.6836C12.5407 10.1552 12.6566 9.58628 12.6554 9.01158C12.6554 8.4116 12.5325 7.82883 12.2878 7.27926Z" fill="#3455C3"/>
</g>
</svg>
