<svg width="18" height="18" viewBox="0 0 18 18" fill="none" xmlns="http://www.w3.org/2000/svg">
<circle cx="9" cy="9" r="9" fill="white"/>
<path fill-rule="evenodd" clip-rule="evenodd" d="M18 9C18 13.9706 13.9706 18 9 18C4.02944 18 0 13.9706 0 9C0 4.02944 4.02944 0 9 0C13.9706 0 18 4.02944 18 9ZM12.6508 5.24074C13.0701 5.60017 13.1187 6.23147 12.7593 6.65079L10.3877 9.41764L13.0703 11.8849C13.4768 12.2587 13.5033 12.8913 13.1294 13.2978C12.7556 13.7044 12.123 13.7308 11.7165 13.357L9.08529 10.9371L6.75926 13.6508C6.39983 14.0701 5.76853 14.1187 5.34921 13.7593C4.92988 13.3998 4.88132 12.7685 5.24074 12.3492L7.61231 9.58238L4.93049 7.11593C4.87967 7.06919 4.8348 7.01842 4.7959 6.96455C4.52362 6.58744 4.54425 6.05864 4.87138 5.70295C5.24524 5.29644 5.87785 5.26998 6.28436 5.64384L8.91469 8.06294L11.2407 5.34921C11.2857 5.29679 11.3348 5.25017 11.3873 5.20941C11.7547 4.92412 12.2839 4.92625 12.6508 5.24074Z" fill="#DC3545"/>
</svg>
