<svg width="25" height="17" viewBox="0 0 25 17" fill="none" xmlns="http://www.w3.org/2000/svg">
<path d="M24.4811 2.6605C24.3381 2.1489 24.0603 1.68232 23.6751 1.30671C23.2898 0.931114 22.8105 0.659455 22.2843 0.5185C20.3238 -3.03984e-07 12.4991 0 12.4991 0C12.4991 0 4.67447 1.51992e-07 2.71394 0.5015C2.188 0.648485 1.70976 0.924223 1.32508 1.30228C0.940402 1.68033 0.662178 2.14802 0.517088 2.6605C0.160957 4.58751 -0.0119013 6.54224 0.000696701 8.5C-0.0124473 10.4578 0.160416 12.4126 0.517088 14.3395C0.660135 14.8511 0.937952 15.3177 1.32317 15.6933C1.70839 16.0689 2.18772 16.3405 2.71394 16.4815C4.69198 17 12.4991 17 12.4991 17C12.4991 17 20.3238 17 22.2843 16.4985C22.8113 16.3591 23.2915 16.088 23.6769 15.7121C24.0624 15.3363 24.3397 14.8689 24.4811 14.3565C24.8383 12.4239 25.0112 10.4634 24.9975 8.5C25.0231 6.54176 24.8501 4.58583 24.4811 2.6605V2.6605ZM10.0047 12.138V4.862L16.5165 8.5L10.0047 12.138Z" fill="#222B45"/>
</svg>
